<?xml version="1.0" encoding="UTF-8" standalone="no"?>
<!-- Created with Inkscape (http://www.inkscape.org/) -->

<svg
   version="1.1"
   id="svg290"
   width="1166.9375"
   height="936.59052"
   viewBox="0 0 1166.9375 936.59055"
   xmlns="http://www.w3.org/2000/svg"
   xmlns:svg="http://www.w3.org/2000/svg">
  <defs
     id="defs294" />
  <g
     id="g296"
     transform="translate(-114.04923,-173.85267)">
    <path
       style="fill:#000000;stroke-width:1.33333"
       d="m 476.50546,1109.1388 c -5.1435,-0.985 -13.1108,-3.3092 -17.70509,-5.165 -4.59432,-1.8557 -11.77066,-5.3868 -15.94742,-7.8468 -4.17677,-2.4601 -12.10949,-8.9838 -17.62828,-14.4972 -5.56391,-5.5585 -12.59031,-14.3807 -15.77185,-19.8028 -3.15573,-5.3781 -7.52164,-15.1032 -9.70204,-21.6112 -2.28965,-6.8342 -4.62158,-17.7142 -5.52013,-25.7551 -1.1934,-10.6795 -1.18617,-17.07265 0.0311,-27.44749 0.89005,-7.58613 3.44098,-19.11663 5.80934,-26.25903 2.32238,-7.0036 7.15651,-17.6163 10.74251,-23.5837 3.586,-5.9674 9.93781,-15.3388 14.11513,-20.8253 4.17732,-5.4866 14.79513,-17.2234 23.59513,-26.0817 8.8,-8.8583 26.8,-25.7219 40,-37.4748 13.2,-11.7528 28.7553,-26.4161 34.5674,-32.585 5.812,-6.169 14.9039,-17.0311 20.2042,-24.138 5.3003,-7.1069 12.7281,-18.4053 16.5062,-25.1074 3.7782,-6.7021 9.2908,-17.68735 12.2505,-24.41162 2.9596,-6.72426 6.8322,-16.67017 8.6058,-22.10201 1.7737,-5.43185 2.9992,-10.10169 2.7235,-10.37741 -0.2757,-0.27574 -2.9951,3.69636 -6.0431,8.82686 -3.048,5.13052 -9.0304,13.70036 -13.2942,19.04408 -4.2638,5.34374 -13.7368,15.4159 -21.0512,22.3825 -7.3143,6.9667 -18.1808,16.1538 -24.1477,20.4157 -5.9669,4.2619 -17.0302,10.9742 -24.5851,14.9162 -7.555,3.942 -18.5363,8.9269 -24.403,11.0776 -5.8666,2.1506 -16.36663,5.3044 -23.3333,7.0083 -10.97034,2.6832 -16.14857,3.1082 -38.66666,3.1735 -19.71431,0.057 -28.41757,-0.4661 -36,-2.1644 -5.5,-1.2319 -20.58769,-5.2447 -33.52821,-8.9174 -12.94052,-3.6728 -28.06523,-7.6148 -33.61046,-8.7602 -5.71724,-1.181 -16.60068,-2.0741 -25.13845,-2.0629 -8.67518,0.012 -18.66481,0.8704 -23.57082,2.0268 -4.68303,1.1039 -13.22778,4.4592 -18.98831,7.4562 -7.23704,3.7651 -12.75447,7.9125 -17.85417,13.4208 -4.05927,4.3845 -8.81162,10.796 -10.56078,14.2478 -1.74914,3.4517 -4.20224,9.7913 -5.45129,14.0879 -1.66229,5.7181 -2.10328,10.885 -1.64524,19.2764 0.39416,7.2213 1.69145,14.2254 3.50513,18.9242 1.74162,4.5121 5.79567,10.6824 10.25972,15.6153 5.08134,5.6151 10.08654,9.4878 16.06784,12.4324 6.85707,3.3757 10.84656,4.3973 18.9346,4.8485 8.1327,0.4537 11.76028,0 17.58044,-2.1984 4.03334,-1.5236 9.66074,-4.6898 12.50534,-7.036 2.8446,-2.3463 6.58873,-7.3085 8.3203,-11.0271 2.05117,-4.405 3.15285,-9.2217 3.16133,-13.8218 0.0107,-5.729 -0.6042,-7.6778 -3.2597,-10.3333 -1.8,-1.8 -4.2,-3.2727 -5.33333,-3.2727 -1.13334,0 -2.0606,-0.5301 -2.0606,-1.1779 0,-0.6478 1.05,-1.4441 2.33333,-1.7697 1.28333,-0.3255 4.24577,-0.088 6.58318,0.5277 2.33743,0.6157 6.0273,3.2759 8.19974,5.9114 2.17242,2.6355 4.69189,7.4422 5.59882,10.6814 0.94912,3.3899 1.31026,8.7494 0.85091,12.6279 -0.43893,3.7061 -2.27887,9.9728 -4.08876,13.9262 -1.80989,3.9533 -6.09171,10.1823 -9.51515,13.8423 -3.42345,3.6599 -9.06385,8.4764 -12.53422,10.7034 -3.47039,2.2269 -9.86135,5.2714 -14.20216,6.7655 -4.3408,1.4941 -12.09236,3.0544 -17.22569,3.4673 -6.11602,0.4919 -12.71846,0.031 -19.15346,-1.3377 -5.40106,-1.1486 -14.40106,-4.3371 -20,-7.0855 -7.62338,-3.7423 -12.86337,-7.6867 -20.86545,-15.7064 -6.40629,-6.4205 -12.36121,-13.913 -14.86973,-18.7093 -2.3013,-4.4 -5.49698,-12.2 -7.10154,-17.3333 -1.86122,-5.9545 -3.18297,-14.512 -3.65108,-23.6384 -0.44294,-8.6362 -0.0809,-18.4114 0.91334,-24.6667 0.90586,-5.6989 3.55405,-15.4616 5.88482,-21.6949 2.33079,-6.2333 6.62399,-14.9216 9.54044,-19.3073 2.91647,-4.3856 8.84047,-11.756 13.16446,-16.3785 4.324,-4.6225 12.73449,-11.6467 18.69,-15.6094 5.9555,-3.9626 15.01769,-9.0908 20.1382,-11.396 5.12049,-2.30509 14.71,-5.6279 21.31,-7.38397 6.6,-1.75608 17.7,-3.69703 24.66666,-4.31323 6.96667,-0.61621 18.54096,-0.67681 25.72065,-0.13469 7.1797,0.54212 22.7797,2.94213 34.66667,5.33335 18.7186,3.76549 24.38008,4.35421 42.27935,4.39648 17.41452,0.0411 22.52673,-0.4368 32.48694,-3.03708 6.50115,-1.69723 15.94156,-4.83963 20.97869,-6.98312 5.03712,-2.1435 12.318,-5.75163 16.17972,-8.01807 3.86172,-2.26645 10.92131,-7.01577 15.68794,-10.55404 4.7667,-3.53827 11.6554,-9.48541 15.3083,-13.21589 l 6.6415,-6.78267 -9.9749,3.3972 c -5.4862,1.86847 -15.97486,4.62353 -23.3082,6.12237 -7.47352,1.52751 -21.53708,3.05683 -31.99999,3.47979 -11.29382,0.45656 -24.16946,0.1128 -32.59867,-0.87051 -7.66261,-0.8938 -19.66261,-3.11248 -26.66667,-4.93037 -7.00406,-1.81789 -19.12902,-6.00256 -26.94436,-9.29928 -7.81533,-3.29671 -19.51533,-9.48961 -26,-13.76203 -6.48466,-4.27239 -16.01628,-11.68098 -21.18135,-16.46351 -5.16508,-4.78254 -13.07244,-13.87098 -17.57192,-20.19654 -4.50512,-6.33352 -14.474,-24.21465 -22.18714,-39.797 -8.08988,-16.34344 -16.6139,-31.56956 -20.17946,-36.04572 -3.39524,-4.26237 -8.96435,-9.51986 -12.37578,-11.68333 -3.41142,-2.16347 -8.3233,-4.52272 -10.91529,-5.24281 -2.59199,-0.72008 -8.05379,-1.31259 -12.13736,-1.31667 -4.08356,-0.004 -10.47312,0.89785 -14.19901,2.00432 -3.7259,1.10648 -10.49339,4.49525 -15.03887,7.5306 -4.54549,3.03536 -10.29104,8.28007 -12.76788,11.65491 -2.47685,3.37484 -5.52213,9.13606 -6.76729,12.80273 -1.37862,4.05964 -2.24291,10.63979 -2.21018,16.82672 0.0429,8.11559 0.77466,11.73764 3.63635,18 1.97042,4.31197 5.50011,9.86343 7.84373,12.33656 2.34363,2.47313 7.26115,5.91728 10.92782,7.65364 4.60477,2.18061 9.05426,3.16105 14.38645,3.17005 5.09276,0.008 9.48664,-0.88836 12.91189,-2.63578 2.85566,-1.45686 6.13175,-3.99036 7.28022,-5.63002 1.14845,-1.63965 2.0881,-4.16768 2.0881,-5.61785 0,-1.9576 0.38744,-2.24921 1.50435,-1.13231 0.8274,0.8274 1.44811,4.30651 1.37936,7.73135 -0.0687,3.42484 -1.21899,8.11788 -2.55609,10.42899 -1.33712,2.31109 -5.26382,6.11069 -8.72599,8.44354 -3.46217,2.33286 -9.6388,4.93576 -13.72583,5.78423 -5.59436,1.16139 -9.59126,1.16647 -16.1716,0.0205 -4.80733,-0.83716 -11.71155,-3.0276 -15.34269,-4.86764 -3.63114,-1.84004 -9.21487,-5.7539 -12.40829,-8.6975 -3.19342,-2.94359 -7.70255,-8.30718 -10.0203,-11.91907 -2.31775,-3.61189 -5.4147,-10.31597 -6.88211,-14.89793 -1.89138,-5.90579 -2.72072,-12.40619 -2.84905,-22.33086 -0.10175,-7.86801 0.60473,-17.21198 1.61296,-21.33333 0.9867,-4.03333 3.90795,-11.69229 6.49167,-17.01989 2.86483,-5.90726 8.04968,-13.30704 13.289,-18.966 4.72523,-5.10368 13.01711,-12.23956 18.42641,-15.85752 5.4093,-3.61796 13.31728,-7.89781 17.57331,-9.51079 4.25603,-1.61297 11.79148,-3.5752 16.74545,-4.3605 6.60703,-1.04734 11.68975,-1.01078 19.07391,0.13721 5.82596,0.90575 14.29888,3.52043 20.11313,6.20679 5.52556,2.55296 13.79887,7.31941 18.38514,10.59209 4.58626,3.27269 11.4514,9.35619 15.25586,13.51887 3.80446,4.16267 12.10838,15.10078 18.45315,24.30689 6.34477,9.2061 14.95473,20.98662 19.13324,26.17894 4.1785,5.19232 11.14217,12.52232 15.47482,16.28891 4.33266,3.76657 11.58843,9.24679 16.12395,12.17823 4.53552,2.93145 12.04912,6.85224 16.69691,8.71288 4.64777,1.86062 13.03744,4.33042 18.6437,5.48842 5.60627,1.15802 16.16572,2.10547 23.46546,2.10547 7.29974,0 17.67504,-0.84273 23.05621,-1.87273 5.38117,-1.03 13.63912,-3.1718 18.35098,-4.75956 4.71186,-1.58776 12.81186,-4.93696 18,-7.44268 5.18814,-2.50574 12.54262,-6.51392 16.34324,-8.90711 l 6.9104,-4.35125 h -23.57702 c -18.79356,0 -25.60583,-0.5152 -33.57697,-2.53935 -5.5,-1.39664 -13.9,-3.98907 -18.66667,-5.76097 -4.76667,-1.7719 -12.56667,-5.35914 -17.33333,-7.97164 -4.76667,-2.61251 -13.16667,-8.07699 -18.66667,-12.14328 -5.5,-4.0663 -13.80588,-11.33635 -18.45752,-16.15568 -4.65163,-4.81932 -11.67764,-13.5932 -15.61335,-19.49751 -3.9357,-5.90429 -9.02026,-15.11645 -11.29902,-20.47144 -2.27875,-5.355 -5.40678,-14.3242 -6.95118,-19.93157 -2.31874,-8.41892 -2.80464,-13.91212 -2.78877,-31.52856 0.0175,-19.37143 0.35336,-22.43608 3.65267,-33.32429 1.9984,-6.59503 8.09074,-21.45495 13.53857,-33.02204 5.44781,-11.56709 11.11749,-24.62997 12.59928,-29.02861 1.4818,-4.39864 3.39191,-12.48547 4.24468,-17.97074 1.13589,-7.30634 1.16768,-12.44641 0.11893,-19.22224 -0.78738,-5.08697 -2.92556,-12.51222 -4.75148,-16.50057 -1.82593,-3.98835 -5.55333,-9.72372 -8.28313,-12.74528 -2.7462,-3.03972 -8.90689,-7.43517 -13.79175,-9.83999 -7.98798,-3.93246 -9.97356,-4.34624 -20.8565,-4.34624 -10.31816,0 -13.1342,0.51822 -19.80923,3.64534 -4.27966,2.00493 -10.06825,5.45672 -12.86356,7.67064 -2.7953,2.21392 -6.89081,6.87352 -9.10113,10.35466 -2.21032,3.48115 -4.97172,9.58827 -6.13644,13.57136 -1.16477,3.98312 -2.11773,9.72422 -2.11773,12.75802 0,3.0338 0.92576,8.63336 2.05724,12.44345 1.13148,3.81011 3.98148,9.11908 6.33333,11.79773 2.35185,2.67864 6.89371,6.02818 10.09301,7.4434 4.3255,1.91339 7.31516,2.34846 11.66034,1.69686 3.33374,-0.49992 7.6182,-2.36966 9.97578,-4.35344 2.27282,-1.91244 4.63763,-4.72611 5.25516,-6.25259 0.8926,-2.20645 1.13908,-1.68209 1.20231,2.55792 0.0465,3.12519 -1.03389,7.15955 -2.60971,9.74419 -1.55269,2.54672 -5.07246,5.49272 -8.32834,6.97072 -3.35579,1.52334 -8.64726,2.57172 -13.06827,2.58914 -4.08603,0.0161 -10.23256,-0.92593 -13.65893,-2.09342 -3.42639,-1.16748 -9.21494,-4.80659 -12.86343,-8.08691 -4.05807,-3.64855 -8.19976,-9.16595 -10.66736,-14.21063 -2.21855,-4.53553 -4.63689,-11.47832 -5.37409,-15.42841 -0.7372,-3.95009 -1.32996,-9.65009 -1.31723,-12.66667 0.0133,-3.01657 0.88603,-9.5568 1.94065,-14.53382 1.05462,-4.97703 3.8942,-13.07192 6.31018,-17.98864 2.64814,-5.38922 7.56986,-12.16492 12.39269,-17.06098 4.4,-4.46681 11.9,-10.26886 16.66667,-12.89344 4.76666,-2.62457 12.86666,-6.06759 18,-7.65117 5.13333,-1.58357 14.78435,-3.21889 21.44671,-3.63404 8.97535,-0.55926 14.84726,-0.14668 22.66667,1.59267 5.80431,1.29111 13.65827,3.72044 17.45325,5.3985 3.79499,1.67806 10.39578,5.42498 14.66844,8.32648 4.27266,2.90151 10.33246,8.05708 13.46623,11.45682 3.13377,3.39974 8.00124,9.74526 10.81659,14.10116 2.81534,4.35589 6.85056,13.20325 8.96713,19.6608 3.57168,10.89701 3.84831,13.22656 3.84831,32.40765 0,15.03195 -0.62747,23.24481 -2.30136,30.12263 -1.26575,5.20077 -4.45418,16.30077 -7.08539,24.66666 -2.63121,8.36588 -5.9414,20.01071 -7.35596,25.87737 -1.51419,6.27983 -2.57579,15.41592 -2.58128,22.21455 -0.007,7.61227 0.85156,14.31397 2.51673,19.66417 1.38935,4.46398 4.44127,11.10088 6.78206,14.74867 2.34078,3.6478 7.95404,10.05728 12.47392,14.24328 5.4997,5.09347 12.18716,9.48283 20.21794,13.2702 6.6,3.1126 16.62471,6.60424 22.27712,7.7592 5.65241,1.15496 15.32383,2.09993 21.49201,2.09993 6.16819,0 16.2435,-0.88066 22.3896,-1.95702 6.146,-1.07638 15.3804,-3.3916 20.5209,-5.14495 5.1405,-1.75335 14.0705,-5.37064 19.8446,-8.03843 5.7741,-2.66778 15.3683,-8.09254 21.3204,-12.05501 5.9521,-3.96248 16.0384,-12.08713 22.4139,-18.05481 6.3755,-5.96768 14.5559,-14.57771 18.1787,-19.13339 3.6227,-4.55568 8.7316,-12.18773 11.353,-16.96013 2.6214,-4.7724 5.761,-12.5604 6.9769,-17.30668 1.5132,-5.90639 1.9906,-11.58331 1.513,-17.98959 -0.4893,-6.56299 -2.0197,-12.34824 -5.1212,-19.35998 -4.1231,-9.3215 -4.4256,-10.99515 -4.4578,-24.66667 -0.026,-11.09285 0.5468,-16.0858 2.351,-20.49069 1.312,-3.2032 3.8594,-7.75644 5.6609,-10.11828 1.8015,-2.36184 6.128,-5.84458 9.6145,-7.7394 3.4865,-1.89483 11.2861,-5.24859 17.3324,-7.45279 6.0462,-2.2042 12.691,-5.2166 14.7662,-6.69423 2.0751,-1.47764 5.4089,-5.04721 7.4083,-7.93238 1.9994,-2.88519 7.2075,-13.8234 11.5734,-24.30715 4.3659,-10.48375 10.7453,-23.6072 14.1765,-29.16322 3.4312,-5.55602 8.7673,-13.40186 11.8581,-17.43519 3.0908,-4.03333 9.1307,-10.95881 13.4219,-15.38995 4.2913,-4.43113 12.0023,-11.3931 17.1357,-15.47102 5.1333,-4.07794 14.0758,-10.2648 19.8722,-13.7486 5.7963,-3.4838 15.2745,-8.36115 21.0627,-10.83858 5.7881,-2.47741 15.5669,-6.04262 21.7307,-7.9227 6.1639,-1.88008 17.0856,-4.58938 24.2707,-6.02064 7.185,-1.43127 21.7637,-2.97638 32.397,-3.43358 14.8452,-0.63829 22.1794,-0.33245 31.5933,1.31748 6.743,1.1818 17.1711,3.94108 23.1737,6.13175 6.0025,2.19065 15.4828,6.8308 21.0673,10.31144 5.5844,3.48063 14.7476,10.71761 20.3626,16.08219 5.6151,5.36458 13.1911,14.08017 16.8356,19.368 3.6445,5.28781 8.4282,13.21421 10.6304,17.61421 2.2022,4.4 5.5103,12.2 7.3514,17.33333 1.8411,5.13334 4.2818,14.13334 5.4239,20 1.1421,5.86667 2.4622,14.92291 2.93358,20.12497 0.4713,5.20208 0.1506,15.37435 -0.71268,22.60506 -0.8633,7.23069 -3.0383,18.21469 -4.8333,24.40886 -1.795,6.19418 -5.2656,15.59504 -7.7124,20.89082 -2.4468,5.29577 -6.8524,13.16825 -9.7902,17.4944 -2.9379,4.32616 -8.4835,11.62598 -12.3238,16.22185 -3.8402,4.59585 -11.861,12.15346 -17.8241,16.79469 -5.9631,4.64121 -14.142,10.27487 -18.1753,12.51921 -4.0333,2.24435 -10.9923,5.29971 -15.4642,6.7897 -4.472,1.48997 -15.272,3.96345 -24,5.49661 -8.7281,1.53316 -19.1691,4.2914 -23.2025,6.12941 -4.0333,1.83802 -9.0572,4.95792 -11.1642,6.93314 -2.107,1.9752 -4.7104,5.64992 -5.7854,8.16602 -1.1097,2.59732 -1.9183,8.44267 -1.8708,13.52315 0.053,5.66704 1.1194,11.71641 2.908,16.49681 1.5533,4.15163 5.7683,11.95018 9.3666,17.3301 3.5983,5.37992 11.6419,14.60877 17.8746,20.50856 6.2327,5.89978 16.2835,14.00121 22.3351,18.00315 6.0515,4.00195 16.0354,9.78914 22.1864,12.86042 6.151,3.07128 18.151,7.89373 26.6667,10.71656 8.5156,2.82282 22.0591,6.14525 30.0966,7.38317 10.8286,1.66779 19.6348,2.07771 33.99998,1.58267 13.58706,-0.46823 22.57726,-1.50495 30.05306,-3.46559 5.8666,-1.53863 16.3666,-5.64203 23.3333,-9.11867 9.9959,-4.98834 14.7799,-8.43749 22.6891,-16.35813 6.7987,-6.80846 11.3741,-12.82466 14.2244,-18.70361 2.3111,-4.76667 4.9371,-12.45777 5.8357,-17.09133 0.9842,-5.07554 1.3286,-13.02634 0.8661,-20 -0.4222,-6.36644 -2.5925,-20.14548 -4.8229,-30.62012 -2.2305,-10.47463 -4.7683,-25.61754 -5.6396,-33.65091 -1.2125,-11.17988 -1.22,-17.56897 -0.032,-27.23673 0.8538,-6.94683 2.9745,-16.54884 4.7128,-21.33781 1.7383,-4.78898 5.1739,-12.02931 7.6348,-16.08963 2.4608,-4.06032 7.0856,-10.36764 10.2773,-14.01627 3.1917,-3.64861 9.336,-9.35232 13.6539,-12.67489 4.318,-3.32259 12.2195,-8.1108 17.5589,-10.64048 5.3395,-2.52968 14.5081,-5.85833 20.3748,-7.397 7.316,-1.91879 15.0644,-2.83567 24.6667,-2.91887 9.1998,-0.0797 16.9715,0.65132 22.6666,2.13208 4.7667,1.23936 12.5667,4.14356 17.3334,6.4538 5.7273,2.77586 11.8821,7.40332 18.1476,13.6443 5.8874,5.86432 11.0722,12.59729 13.679,17.7635 2.3089,4.57582 5.0835,12.07582 6.1659,16.66667 1.0824,4.59087 1.9769,12.36749 1.9878,17.2814 0.011,4.91391 -0.6434,12.11391 -1.4538,16 -0.8104,3.88609 -3.2,10.72962 -5.3102,15.20785 -2.1868,4.64059 -6.3701,10.47735 -9.7274,13.57195 -3.2398,2.98634 -8.3912,6.70546 -11.4476,8.26472 -3.0564,1.55925 -8.366,3.16657 -11.7992,3.57182 -3.4332,0.40526 -8.7649,0.0563 -11.8482,-0.77534 -3.0833,-0.8317 -7.4157,-3.03496 -9.6276,-4.89615 -2.2119,-1.86117 -4.6167,-5.53895 -5.3439,-8.1728 -0.8248,-2.9872 -0.8548,-5.58848 -0.08,-6.91431 0.9894,-1.69224 1.251,-1.3935 1.2832,1.46562 0.024,2.1665 1.2161,4.41442 3.0039,5.66666 1.6299,1.14158 5.5892,2.0756 8.7985,2.0756 3.2094,0 7.9181,-0.98842 10.464,-2.19649 2.5458,-1.20808 6.4777,-4.04551 8.7376,-6.3054 2.2599,-2.25989 5.5118,-7.12147 7.2264,-10.80351 2.4167,-5.18969 3.1204,-9.01425 3.1305,-17.01362 0.01,-6.92331 -0.8175,-12.50475 -2.5107,-16.96103 -1.3881,-3.6531 -4.3899,-8.99813 -6.6707,-11.87786 -2.2808,-2.87972 -6.9951,-7.04431 -10.4762,-9.25463 -3.4812,-2.21032 -9.5883,-4.97172 -13.5714,-6.13644 -3.9831,-1.16472 -10.8831,-2.10301 -15.3333,-2.08508 -4.4502,0.0179 -10.7913,0.65443 -14.0913,1.41445 -3.3,0.76003 -9.7774,3.24122 -14.3943,5.51375 -5.259,2.58868 -10.8262,6.79292 -14.9058,11.25667 -3.6823,4.02896 -7.8357,10.4541 -9.5588,14.78698 -2.5914,6.51619 -3.0406,10.05531 -3.0039,23.66221 0.033,12.11863 0.7483,18.63834 2.9497,26.8759 1.5986,5.98174 5.8529,18.58174 9.4541,28 3.6012,9.41826 7.5583,21.9241 8.7934,27.79077 1.3063,6.20403 2.2323,16.52388 2.2136,24.66667 -0.018,7.7 -1.0215,18.8 -2.2305,24.66666 -1.209,5.86667 -3.8998,14.73564 -5.9795,19.70883 -2.0797,4.97318 -6.486,13.37318 -9.7919,18.66666 -3.3059,5.29348 -9.3547,13.47819 -13.4419,18.18823 -4.0872,4.71005 -10.8827,11.52976 -15.1011,15.15491 -4.2184,3.62513 -13.0651,10.17372 -19.6593,14.55241 -6.5942,4.37868 -16.7942,10.24588 -22.6666,13.03823 -5.8725,2.79233 -16.2278,6.92882 -23.0119,9.1922 -6.784,2.26337 -18.2928,5.32944 -25.5751,6.81348 -7.2823,1.48402 -20.09636,3.25704 -28.47576,3.94001 -9.57528,0.78044 -20.38288,0.76547 -29.09148,-0.0403 -7.6209,-0.70513 -18.213,-2.46689 -23.5378,-3.91502 -5.3248,-1.44816 -10.0794,-2.633 -10.5657,-2.633 -0.4863,0 0.5704,1.57472 2.3482,3.49938 1.7779,1.92466 9.2325,8.67466 16.5658,15 7.3333,6.32533 18.07,16.00061 23.8593,21.50061 5.7892,5.5 21.45478,22.3 34.81228,37.33334 13.35746,15.03333 27.22086,29.77044 30.80736,32.74904 3.5865,2.9786 9.4203,7.3914 12.9638,9.8061 3.5436,2.4147 9.8436,5.5893 14,7.0547 6.0548,2.1347 9.9428,2.5535 19.5572,2.1066 9.5284,-0.4429 13.5451,-1.2989 19.5018,-4.156 4.2018,-2.0153 10.249,-6.535 13.7465,-10.2742 3.4346,-3.6718 7.1157,-8.7606 8.1802,-11.3084 1.0646,-2.5479 2.8112,-7.9942 3.8814,-12.10292 1.0702,-4.10876 2.5729,-17.40967 3.3394,-29.55756 0.7665,-12.14791 2.2408,-25.73891 3.2761,-30.20223 1.0354,-4.46332 3.124,-11.01085 4.6414,-14.55008 1.5174,-3.53921 4.9865,-9.79101 7.7092,-13.89289 2.7226,-4.10188 8.1886,-10.95569 12.1465,-15.23069 3.9579,-4.275 11.5997,-10.71804 16.9819,-14.31786 5.3822,-3.59982 13.0488,-7.76597 17.0368,-9.25809 3.9881,-1.49213 11.2017,-3.24227 16.0302,-3.8892 4.8286,-0.64693 12.6201,-0.71384 17.3145,-0.14869 4.6944,0.56516 11.9721,2.23548 16.1726,3.71182 4.2005,1.47636 10.5616,4.56087 14.1359,6.85447 3.5743,2.2936 9.734,7.66475 13.6883,11.93588 3.9543,4.27115 8.726,10.51451 10.6038,13.87413 1.8777,3.35964 4.7071,9.56315 6.2876,13.78559 1.6924,4.52151 3.1779,12.36859 3.614,19.09065 0.4251,6.55213 0.055,15.35472 -0.8681,20.66667 -0.8847,5.08924 -3.4683,13.15316 -5.7413,17.91982 -2.4976,5.23768 -7.0801,11.6142 -11.5822,16.1165 -5.2326,5.2328 -9.8274,8.36621 -15.4397,10.52908 -5.2794,2.0346 -10.9553,3.106 -16.7303,3.158 -6.4235,0.058 -9.9451,-0.625 -13.2861,-2.5762 -2.5004,-1.4603 -5.7368,-4.6939 -7.1921,-7.18578 -2.6048,-4.45998 -2.6056,-4.5128 -0.047,-3.383 1.4293,0.63126 5.3697,1.39387 8.7563,1.69472 4.3659,0.38784 7.6634,-0.22297 11.3333,-2.09938 2.8468,-1.45551 6.7549,-4.11359 8.6847,-5.90684 1.9298,-1.79326 5.037,-5.60496 6.9049,-8.47046 1.8678,-2.86548 4.412,-8.765 5.6536,-13.11002 1.5284,-5.34839 2.0545,-10.73855 1.6288,-16.68815 -0.3458,-4.83345 -1.8654,-11.58383 -3.3769,-15.00084 -1.5115,-3.41701 -5.2032,-8.87608 -8.2037,-12.13128 -3.3036,-3.58389 -8.6774,-7.36441 -13.6233,-9.584 -7.4371,-3.33754 -9.2557,-3.61434 -20.33,-3.09404 -9.0972,0.4274 -13.5813,1.30791 -17.7934,3.49392 -3.0972,1.60738 -7.7432,5.03438 -10.3243,7.61555 -2.5812,2.58117 -5.9771,7.21003 -7.5466,10.28635 -1.5694,3.0763 -3.4582,7.41037 -4.1973,9.63125 -0.7392,2.22088 -1.7815,19.33796 -2.3163,38.03796 -0.6839,23.91314 -1.6528,37.16174 -3.2658,44.65724 -1.2615,5.8615 -3.6678,14.0393 -5.3475,18.173 -1.6796,4.1337 -5.451,11.0379 -8.3808,15.3428 -2.9298,4.3048 -8.6145,10.929 -12.6327,14.7204 -4.0182,3.7913 -10.7935,9.1245 -15.0563,11.8513 -4.2628,2.7269 -11.3995,6.4464 -15.8592,8.2656 -4.4598,1.8191 -10.8086,4.0982 -14.1086,5.0644 -3.3,0.9663 -9.8874,2.4461 -14.6386,3.2884 -4.7511,0.8424 -14.7145,1.5033 -22.1408,1.4689 -7.4264,-0.034 -18.1838,-1.0296 -23.9055,-2.2115 -5.7216,-1.1818 -14.9582,-3.9529 -20.5257,-6.158 -5.5675,-2.205 -13.42276,-5.8735 -17.45606,-8.1521 -4.0333,-2.2786 -10.6333,-6.5476 -14.6667,-9.4866 -4.03328,-2.939 -14.65188,-11.8059 -23.59678,-19.7042 -8.945,-7.8983 -21.1127,-17.956 -27.0396,-22.3505 -5.9268,-4.3944 -16.0082,-11.2232 -22.4031,-15.1751 -6.3949,-3.9519 -22.4271,-12.8027 -35.6271,-19.6684 -13.2,-6.86572 -30,-16.57478 -37.3333,-21.57568 -7.3334,-5.0009 -18.3815,-12.67738 -24.5513,-17.05886 -6.1699,-4.38148 -11.4335,-7.75077 -11.697,-7.48734 -0.2634,0.26344 1.3942,5.81536 3.6836,12.33761 2.2894,6.52224 7.2522,18.15863 11.0286,25.85863 3.7763,7.7 17.245,29.51954 29.9305,48.48794 12.6856,18.9684 25.3606,39.0684 28.1668,44.6667 2.8062,5.5983 6.7221,14.6787 8.7019,20.1787 1.9798,5.5 4.7394,14.8 6.1323,20.6666 1.393,5.8667 3.1697,15.1667 3.9482,20.6667 0.7785,5.5 2.02,21.098 2.7589,34.6622 0.7389,13.5641 2.2662,29.1641 3.3941,34.6666 1.1279,5.5025 3.7234,14.0047 5.7678,18.89393 2.0444,4.8892 6.4902,13.06094 9.8796,18.15939 3.3895,5.0984 10.2283,13.0981 15.1974,17.7772 4.9691,4.6791 12.674,10.4387 17.1219,12.7992 4.448,2.3604 11.6144,5.2104 15.9254,6.3333 4.311,1.1229 12.8755,2.0416 19.03228,2.0416 6.1567,0 14.8806,-0.9511 19.3865,-2.1136 4.5058,-1.1625 12.28516,-4.2593 17.28746,-6.8818 5.0023,-2.6225 12.077,-7.4492 15.7216,-10.726 3.6446,-3.2768 8.3135,-8.43 10.3752,-11.4516 2.0617,-3.0215 5.1245,-9.0937 6.8062,-13.49375 2.3048,-6.03054 3.0917,-10.95424 3.1964,-20.00007 0.1003,-8.6606 -0.5699,-14.037 -2.4079,-19.3201 -1.8205,-5.2324 -4.6763,-9.4496 -10.0132,-14.7865 -5.4212,-5.4212 -9.4714,-8.1436 -14.7865,-9.939 -4.3809,-1.4798 -11.0678,-2.4699 -16.6535,-2.4659 -6.88466,0 -10.73256,0.7405 -14.66666,2.8037 -2.9333,1.5383 -6.9148,4.5019 -8.8478,6.5858 -1.9329,2.0838 -4.4829,5.7089 -5.6666,8.0559 -1.1838,2.3469 -2.13908,7.1469 -2.12298,10.6666 0.016,3.5197 1.14078,8.8467 2.49918,11.8377 1.3584,2.9909 4.1262,6.7409 6.1505,8.3333 2.0244,1.5924 5.0998,2.89523 6.8342,2.89523 1.7344,0 3.1535,0.5728 3.1535,1.2729 0,0.7001 -2.1579,1.6777 -4.7953,2.1725 -2.7172,0.5098 -7.1952,0.1898 -10.3333,-0.7383 -3.48798,-1.0317 -7.76888,-3.93743 -11.56458,-7.84993 -3.9895,-4.1121 -6.8063,-8.6261 -8.3334,-13.3543 -1.2687,-3.9284 -2.3067,-10.6201 -2.3067,-14.8705 0,-4.2505 1.1674,-11.4791 2.5943,-16.0636 1.4269,-4.5845 4.7328,-11.4406 7.3466,-15.2356 2.6137,-3.7951 7.2963,-8.6961 10.40568,-10.8912 3.1093,-2.1951 8.3291,-5.038 11.5995,-6.3175 3.2703,-1.2796 9.9217,-2.6598 14.78086,-3.0671 4.8592,-0.4074 12.9835,-0.019 18.0539,0.8624 5.0705,0.8817 14.2126,3.942 20.3159,6.8006 8.4456,3.9556 13.2621,7.3627 20.1596,14.2602 5.9585,5.9585 10.6938,12.3014 13.824,18.5173 2.6651,5.292 5.7568,14.3679 7.0226,20.6149 1.7253,8.5146 2.0729,14.8027 1.4662,26.52383 -0.4374,8.4499 -1.7165,18.73059 -2.8424,22.84589 -1.1259,4.1152 -3.3367,10.4152 -4.9129,14 -1.5761,3.5847 -4.9643,9.8176 -7.5292,13.8509 -2.5649,4.0334 -6.9615,9.9489 -9.7704,13.1457 -2.8088,3.1967 -8.8736,8.8471 -13.4773,12.5562 -4.6037,3.7092 -13.7704,9.2814 -20.3704,12.3827 -6.6,3.1014 -16.1999,6.7351 -21.3333,8.0749 -7.04466,1.8387 -13.91056,2.4069 -27.99996,2.3174 -15.53058,-0.099 -20.84078,-0.6933 -31.60768,-3.5394 -7.1176,-1.8813 -18.0216,-5.8015 -24.2311,-8.7113 -6.2095,-2.9099 -14.186,-7.2601 -17.7256,-9.6671 -3.5396,-2.407 -9.5632,-7.0213 -13.3859,-10.254 -3.8227,-3.2326 -10.1888,-10.1737 -14.1469,-15.4246 -3.958,-5.2509 -9.4738,-13.3103 -12.2572,-17.9097 l -5.0607,-8.3626 -10.1258,9.7964 c -5.5691,5.388 -13.9023,12.3415 -18.5181,15.4523 -4.6158,3.1108 -13.3158,7.9952 -19.3333,10.8542 -6.0176,2.8591 -16.1793,6.6959 -22.5817,8.5262 -6.4025,1.8304 -17.3625,3.9133 -24.3557,4.6287 -8.0844,0.8271 -17.1285,0.8442 -24.8345,0.047 -6.6659,-0.6897 -15.8059,-2.1205 -20.3111,-3.1796 -4.5052,-1.0592 -11.7427,-3.16 -16.0833,-4.6686 -4.3405,-1.5086 -12.335,-5.1394 -17.7653,-8.0685 -5.4304,-2.9291 -13.279,-7.9521 -17.4414,-11.1622 -4.1624,-3.2101 -10.6828,-9.1378 -14.4897,-13.1727 -3.807,-4.0349 -9.6808,-11.6013 -13.053,-16.8142 -3.3722,-5.21295 -7.6699,-13.53619 -9.5505,-18.49599 -2.5273,-6.66583 -3.5937,-12.49563 -4.0883,-22.35133 -0.4832,-9.6289 -0.07,-15.873 1.4858,-22.4747 1.1852,-5.0278 4.0988,-13.1278 6.4746,-18 2.9482,-6.0458 7.4949,-12.0379 14.3198,-18.8718 5.8349,-5.8427 13.3772,-11.7953 18.1086,-14.2918 4.4597,-2.3531 11.6597,-5.219 16,-6.3686 4.3402,-1.1496 12.3914,-2.09 17.8914,-2.0899 5.5,10e-5 12.844,0.8615 16.32,1.9141 3.476,1.0526 8.9105,3.4319 12.0767,5.2874 3.1661,1.8555 8.3256,6.1606 11.4654,9.567 3.1399,3.4063 7.0037,8.9987 8.5863,12.4275 2.255,4.8856 2.865,8.6858 2.8199,17.5675 -0.045,8.9586 -0.6625,12.4885 -2.9448,16.846 -1.588,3.0319 -4.8422,7.4676 -7.2318,9.8571 -2.3894,2.3895 -6.2933,5.1589 -8.6753,6.1541 -2.3819,0.9952 -6.401,1.8095 -8.9312,1.8095 -2.5303,0 -5.5495,-0.3642 -6.7095,-0.8094 -1.16,-0.4451 -2.1091,-1.2889 -2.1091,-1.8751 0,-0.5862 1.1225,-0.7723 2.4945,-0.4135 1.5583,0.4075 4.2763,-0.9123 7.2427,-3.5168 2.6116,-2.293 5.9891,-6.7321 7.5056,-9.8647 1.5926,-3.2899 2.7572,-8.352 2.7572,-11.9843 0,-3.4587 -0.9318,-8.5192 -2.0707,-11.2457 -1.1389,-2.7264 -3.6889,-6.6621 -5.6667,-8.7459 -1.9777,-2.0839 -5.9959,-5.0796 -8.9292,-6.6571 -4.3271,-2.3272 -7.5974,-2.8689 -17.3334,-2.8712 -9.4766,0 -13.3109,0.6016 -18.2342,2.8716 -3.4288,1.581 -8.9109,5.3417 -12.1823,8.3572 -3.2714,3.0155 -7.1526,8.319 -8.6247,11.7855 -1.4721,3.4665 -3.0853,9.3724 -3.5849,13.1243 -0.4996,3.7518 -0.2598,10.3296 0.5328,14.6173 0.7926,4.2877 3.2609,11.6845 5.485,16.4373 2.9697,6.3462 6.952,11.5023 14.9927,19.41223 7.9803,7.85044 13.6603,12.10379 20.949,15.68739 5.5,2.7042 13.9,5.975 18.6666,7.2686 5.8991,1.6008 13.3503,2.3364 23.3334,2.3033 12.4694,-0.041 16.2646,-0.6 25.3333,-3.7295 5.8667,-2.0245 13.9667,-5.5525 18,-7.84 4.0333,-2.2875 10.9834,-7.79345 15.4445,-12.23539 5.7544,-5.7295 9.7235,-11.36923 13.6599,-19.40953 3.0518,-6.2333 6.5824,-15.2333 7.8459,-19.9999 1.4797,-5.5822 2.272,-13.4121 2.2264,-22 -0.06,-11.2322 -0.696,-15.1289 -4.0377,-24.7277 -2.1818,-6.2668 -6.9016,-16.3278 -10.4884,-22.3578 -3.5869,-6.0299 -11.7532,-17.7024 -18.1474,-25.939 -6.3942,-8.2365 -19.984,-24.0471 -30.1996,-35.1345 -10.2155,-11.0875 -21.8924,-24.2875 -25.9487,-29.3334 -4.0563,-5.0458 -10.1653,-13.5099 -13.5756,-18.8091 -3.4104,-5.2991 -9.7243,-16.6991 -14.0311,-25.33332 -4.3067,-8.63419 -9.9197,-21.39852 -12.4733,-28.36519 -2.5535,-6.96667 -5.7217,-17.325 -7.0403,-23.01851 -1.3187,-5.69352 -2.8017,-9.89352 -3.2955,-9.33333 -0.4939,0.56017 -1.5886,6.11851 -2.4326,12.35184 -0.844,6.23333 -3.0595,17.32295 -4.9232,24.64359 -1.8638,7.32064 -4.8979,17.82064 -6.7425,23.33333 -1.8446,5.51269 -7.4892,18.42309 -12.5436,28.68979 -5.0543,10.2666 -13.0855,24.0666 -17.847,30.6666 -4.7614,6.6 -13.8639,17.5847 -20.2276,24.4105 -6.3636,6.8257 -17.3421,17.3851 -24.3964,23.4653 -7.0544,6.0802 -21.5262,17.6533 -32.1595,25.7181 -10.6334,8.0648 -26.5334,19.6237 -35.3334,25.6863 -8.8,6.0627 -20.2,14.389 -25.3333,18.5029 -5.1333,4.1139 -14.932,12.8809 -21.7748,19.4823 -6.8428,6.6013 -15.6107,16.2171 -19.48426,21.3685 -3.87355,5.1513 -8.93144,13.1119 -11.23975,17.69023 -2.30832,4.5783 -5.0904,11.75434 -6.1824,15.94684 -1.092,4.19255 -1.97833,10.94665 -1.96963,15.00925 0.009,4.0626 0.84036,10.4833 1.84812,14.2683 1.00778,3.785 3.3167,10.085 5.13095,14 1.81424,3.915 5.84755,9.9841 8.96289,13.4868 3.11535,3.5028 8.29308,8.1773 11.50608,10.3879 3.213,2.2106 9.8981,5.5983 14.8557,7.5282 7.5919,2.9554 11.2222,3.5252 23.0138,3.6121 13.049,0.096 14.6023,-0.1822 22.8683,-4.0984 4.8776,-2.311 11.3027,-6.6361 14.278,-9.6114 2.9753,-2.9753 6.7294,-7.9846 8.3425,-11.1317 1.8857,-3.6792 3.1517,-9.0731 3.546,-15.1089 0.5018,-7.681 0.071,-10.6473 -2.3702,-16.3222 -1.6409,-3.8144 -5.378,-9.0985 -8.3046,-11.7426 -2.9267,-2.644 -7.3357,-5.6491 -9.7978,-6.6778 -2.4621,-1.0287 -6.5524,-1.8704 -9.0894,-1.8704 -3.6148,0 -5.3518,0.9375 -8.0281,4.3333 -1.8783,2.3833 -3.4196,3.7333 -3.425,3 0,-0.7333 1.1615,-3.2542 2.593,-5.6019 1.4315,-2.3478 4.5792,-5.33195 6.995,-6.63155 2.9817,-1.60414 7.3895,-2.37424 13.7256,-2.39814 7.5776,-0.028 10.7691,0.6699 16.9657,3.71284 4.1977,2.06135 9.7138,6.17965 12.2578,9.15185 2.5441,2.9721 5.8146,7.9335 7.2679,11.0252 1.4533,3.0917 3.3243,9.3823 4.1578,13.979 1.1146,6.1464 1.1284,10.853 0.052,17.7891 -0.926,5.9687 -3.1764,12.6916 -6.1293,18.3109 -2.5663,4.8837 -7.7865,12.0163 -11.6004,15.8503 -3.8139,3.834 -10.1829,9.1271 -14.1533,11.7625 -3.9704,2.6354 -10.2788,5.9746 -14.0186,7.4205 -3.7399,1.4459 -9.7998,3.4645 -13.4665,4.4858 -3.6666,1.0214 -12.3666,2.1335 -19.3333,2.4714 -7.7029,0.3736 -16.3314,-0.087 -22.0184,-1.1765 z"
       id="path304" />
  </g>
</svg>
